<?xml version="1.0" encoding="utf-8"?>
<!-- Generator: Adobe Illustrator 19.1.1, SVG Export Plug-In . SVG Version: 6.00 Build 0)  -->
<svg version="1.1" id="Слой_1" xmlns="http://www.w3.org/2000/svg" xmlns:xlink="http://www.w3.org/1999/xlink" x="0px" y="0px"
	 viewBox="0 0 216 204.3" style="enable-background:new 0 0 216 204.3;" xml:space="preserve">
<path d="M150.2,68.5C130.3,51.5,96,51.2,76.8,68C65,78.6,58.9,94.3,60.1,110.9v0.1c1.8,14,10.1,26.8,22.1,34.2
	c11.3,7,24.4,8.5,36.9,4.1c16.2-6.2,26.7-23.5,24.3-40.1V109c-2.7-12.2-9.5-21.1-19.6-25.6h-0.1c-8.5-3.3-18.7-1.9-26.7,3.5
	c-6.8,4.7-10.8,11.7-10.8,19.2c0,6.4,3.5,12.8,8.9,16.5c4.9,3.3,10.6,3.9,16.1,1.7l0.2-0.1l0.2-0.1c4.3-2.8,6.8-7,6.8-11.2
	c0-5.1-4.6-6.6-7.3-7.6c-0.9-0.3-2.4-0.8-2.7-1.2c-0.5-1.5-0.1-2,0.1-2.2c1.3-1.4,5.3-1.7,7.3-1.2c6.4,1.5,11,8.5,10,15.2
	c-1,6.4-4.3,11.8-9.4,15.2c-5.2,3.5-11.7,4.6-18.1,3.2c-8.7-2.3-15.5-8.1-19.3-16.5c-4.1-9.1-4-19.9,0.4-28.7
	c6.5-10.7,15.9-17,28.8-19.2c22.8-3.1,44.9,14.1,48.3,37.6c3.1,20.7-8.3,42-28.2,53.1c-6.8,3.8-13.1,6.7-18.7,8.8l0,0
	c-2.5,0.9-2,4.6,0.6,4.8l0,0c2.2,0.2,4.5,0.3,6.7,0.3c8.9,0,20.1-2.8,26.1-5.8c20.1-9.9,29.7-32,30.6-51.5
	C174.5,99.2,166.3,82.3,150.2,68.5z"/>
<path d="M1.9,84.9C0.5,86.2,0.1,89,0,89.7C0,92,0.5,93.6,1.9,95c2.5,2.5,15.3,4,31,1.1c10.9-2,16.5-4.9,16.5-6.1c0,0,0-0.1,0-0.2
	v0.6v0.5l0,0c-0.2-2-5.7-4.4-16.5-6.4C17.2,81.6,4.4,82.4,1.9,84.9z"/>
<path d="M215.7,50.7c0.7-1.8-0.2-4.5-0.4-5.1c-1-2.1-2.2-3.3-4.1-3.9c-3.4-1.1-15.5,3.3-28.2,12.9c-8.9,6.7-12.6,11.8-12,12.8
	c0,0,0,0.1,0.1,0.2l0.1,0.3l0.1,0.3l0,0c0.6,0.8,6.7,0.6,17.2-2.4C203.8,61.2,214.6,54.1,215.7,50.7z"/>
<path d="M193.3,204.3c1.9,0,4.2-1.6,4.7-2.1c1.6-1.6,2.4-3.1,2.4-5c0-3.5-8-13.7-21.1-22.7c-9.1-6.3-15.1-8.2-16-7.3l-0.1,0.1
	l-0.2,0.2l-0.2,0.2l0,0c-0.6,0.8,1.6,6.5,7.8,15.5C179.6,196.4,189.8,204.3,193.3,204.3z"/>
<path d="M43.8,204.3c-1.9,0-4.2-1.6-4.7-2.1c-1.6-1.6-2.4-3.1-2.4-5c0-3.5,8-13.7,21.1-22.7c9.1-6.3,15.1-8.2,16-7.3l0.1,0.1
	l0.2,0.2l0.2,0.2l0,0c0.6,0.8-1.6,6.5-7.8,15.5C57.5,196.4,47.4,204.3,43.8,204.3z"/>
<path d="M105.8,1.9c0.1,0.1,0.2,0.1,0.3,0.2C106,2.1,105.9,2,105.8,1.9z"/>
<path d="M126.5,5.2c-3-3.7-9.6-4.9-10.4-5c-0.1,0-0.1,0-0.2,0c-0.4,0-1.8-0.2-2.7-0.2c-0.7,0-2.4,0.2-2.8,0.2c-0.1,0-0.1,0-0.2,0
	c-0.6,0.1-4.2,0.7-7.3,2.5c-1,0.5-1.1,1.9-0.2,2.6C111.1,12,115,20.7,115,29.9c0,6.8-0.9,11-3.1,16.4c-0.9,2.3,1.3,3.6,2.4,2.6
	c0.7-0.7,1.8-1.8,3.1-4C122.9,35.3,134.5,14.9,126.5,5.2z"/>
</svg>
