<?xml version="1.0" encoding="iso-8859-1"?>
<!-- Generator: Adobe Illustrator 18.1.1, SVG Export Plug-In . SVG Version: 6.00 Build 0)  -->
<svg xmlns="http://www.w3.org/2000/svg" xmlns:xlink="http://www.w3.org/1999/xlink" version="1.1" id="Capa_1" x="0px" y="0px" viewBox="0 0 58.306 58.306" style="enable-background:new 0 0 58.306 58.306;" xml:space="preserve" width="512px" height="512px">
<g>
	<g>
		<circle cx="16.791" cy="6.38" r="5.848" fill="#FFFFFF"/>
		<path d="M36.341,25.144c1.461-1.87,4.148-2.274,6.096-0.877c1.996,1.433,2.455,4.215,1.021,6.21    c-0.071,0.1-0.147,0.193-0.226,0.285l0.631,0.451c4.307-6.005,3.021-14.356-2.807-18.999l0.424-0.588    c0.234-0.331,0.158-0.792-0.172-1.028c-0.33-0.237-0.789-0.162-1.025,0.169l-0.424,0.588c-6.264-4.034-14.587-2.577-18.895,3.428    l0.46,0.329c0.062-0.103,0.125-0.206,0.197-0.304c1.432-1.996,4.212-2.454,6.21-1.021c1.997,1.433,2.456,4.215,1.022,6.211    c-0.071,0.099-0.15,0.191-0.226,0.283l0.184,0.133c0.063-0.103,0.126-0.206,0.196-0.306c1.433-1.996,4.213-2.454,6.211-1.021    c0.076,0.055,0.146,0.115,0.22,0.174l-9.782,13.633c-0.774,1.078-2.201,1.406-3.358,0.848c1.824-0.857,2.713-4.023,0.515-5.706    c-2.735-2.091-5.093-4.515-7.143-7.198c1.372-2.14,1.505-4.804-0.487-6.77c-1.867-1.844-5.618-2.196-7.401,0.04    C1.858,21.532-1.076,27.35,0.361,36.805c0.976-0.664,1.522-0.207,1.813,0.744c0,5.748,0,11.496,0,17.246    c0,3.971,6.155,3.971,6.155,0c0-5.59,0-11.179,0-16.765c0.378-1.011,1.022-1.655,2.092-1.408    c-0.539-3.551,0.24-7.124,1.784-10.356c2.219,2.596,4.708,4.953,7.498,7.087c0.303,0.231,0.604,0.391,0.9,0.488    c0.187,0.215,0.396,0.414,0.636,0.588c1.712,1.228,4.104,0.834,5.332-0.877l9.654-13.456    C37.282,21.559,37.376,23.57,36.341,25.144z" fill="#FFFFFF"/>
		<path d="M51.617,52.421c-1.849,1.377-2.976-0.871-2.976-0.871l-4.894-4.895    c-0.2,0.023-0.397,0.041-0.59,0.041c-2.294,0-4.12-1.598-4.146-1.621l0.408-0.461c0.102,0.09,1.729,1.505,3.762,1.477    l-0.543-0.545c-0.852-7.921-6.771-5.23-6.771-5.23v1.539l-2.152,0.923c-3.85,0.769,0,2.771,0,2.771    c4.709-0.543,4.615,4.617,4.615,4.617l-3.386,6.463h1.539l4.31-5.232c0,0-3.039,5.232,0.514,5.232c3.554,0,6.564,0,6.564,0    C53.413,54.471,53.68,48.661,51.617,52.421z" fill="#FFFFFF"/>
		<path d="M51.466,13.534c-0.395,0.69-0.156,1.57,0.533,1.964c0.688,0.396,1.568,0.158,1.965-0.532    c0.395-0.688-0.273-2.415-0.273-2.415S51.861,12.846,51.466,13.534z" fill="#FFFFFF"/>
		<path d="M45.613,12.1c0.688,0.396,1.567,0.158,1.964-0.531c0.395-0.69-0.271-2.416-0.271-2.416    s-1.83,0.294-2.228,0.983C44.684,10.826,44.923,11.705,45.613,12.1z" fill="#FFFFFF"/>
		<path d="M29.923,6.364c0.688,0.396,1.566,0.158,1.963-0.532c0.396-0.688-0.273-2.415-0.273-2.415    S29.784,3.712,29.387,4.4C28.994,5.09,29.232,5.971,29.923,6.364z" fill="#FFFFFF"/>
		<path d="M48.652,20.301c-0.394,0.689-0.156,1.569,0.534,1.965c0.689,0.396,1.568,0.158,1.965-0.532    c0.395-0.69-0.275-2.416-0.275-2.416S49.048,19.613,48.652,20.301z" fill="#FFFFFF"/>
		<path d="M57.909,17.75c0,0-1.83,0.293-2.225,0.983c-0.396,0.689-0.157,1.569,0.533,1.964    c0.688,0.396,1.57,0.158,1.963-0.532C58.578,19.476,57.909,17.75,57.909,17.75z" fill="#FFFFFF"/>
		<path d="M51.466,27.024c-0.395,0.69-0.156,1.57,0.533,1.965c0.69,0.396,1.569,0.156,1.965-0.532    c0.395-0.69-0.273-2.416-0.273-2.416S51.861,26.335,51.466,27.024z" fill="#FFFFFF"/>
		<path d="M56.776,7.403c0.395-0.69-0.273-2.416-0.273-2.416s-1.828,0.295-2.225,0.983    c-0.395,0.69-0.155,1.569,0.534,1.965C55.503,8.331,56.382,8.093,56.776,7.403z" fill="#FFFFFF"/>
		<path d="M49.186,6.366c0.688,0.396,1.566,0.158,1.963-0.532c0.396-0.689-0.273-2.416-0.273-2.416    S49.048,3.712,48.652,4.4C48.257,5.09,48.496,5.971,49.186,6.366z" fill="#FFFFFF"/>
		<path d="M40.322,4.796c0.688,0.396,1.569,0.158,1.964-0.532c0.396-0.69-0.273-2.416-0.273-2.416    s-1.829,0.294-2.226,0.982C39.393,3.52,39.632,4.4,40.322,4.796z" fill="#FFFFFF"/>
	</g>
</g>
<g>
</g>
<g>
</g>
<g>
</g>
<g>
</g>
<g>
</g>
<g>
</g>
<g>
</g>
<g>
</g>
<g>
</g>
<g>
</g>
<g>
</g>
<g>
</g>
<g>
</g>
<g>
</g>
<g>
</g>
</svg>
